<svg width="60" height="60" viewBox="0 0 60 60" fill="none" xmlns="http://www.w3.org/2000/svg">
<circle cx="30" cy="30" r="29.5" stroke="white"/>
<path d="M38.4844 18H21.5156C19.5773 18 18 19.5773 18 21.5156V38.4844C18 40.4227 19.5773 42 21.5156 42H38.4844C40.4227 42 42 40.4227 42 38.4844V21.5156C42 19.5773 40.4227 18 38.4844 18ZM30.0469 36.2812C26.5574 36.2812 23.7188 33.4426 23.7188 29.9531C23.7188 26.4637 26.5574 23.625 30.0469 23.625C33.5363 23.625 36.375 26.4637 36.375 29.9531C36.375 33.4426 33.5363 36.2812 30.0469 36.2812ZM37.0781 25.0312C35.915 25.0312 34.9688 24.085 34.9688 22.9219C34.9688 21.7588 35.915 20.8125 37.0781 20.8125C38.2412 20.8125 39.1875 21.7588 39.1875 22.9219C39.1875 24.085 38.2412 25.0312 37.0781 25.0312Z" fill="white"/>
<path d="M37.0781 22.2188C36.6901 22.2188 36.375 22.5339 36.375 22.9219C36.375 23.3099 36.6901 23.625 37.0781 23.625C37.4661 23.625 37.7812 23.3099 37.7812 22.9219C37.7812 22.5339 37.4661 22.2188 37.0781 22.2188Z" fill="white"/>
<path d="M30.0469 25.0312C27.3333 25.0312 25.125 27.2395 25.125 29.9531C25.125 32.6667 27.3333 34.875 30.0469 34.875C32.7605 34.875 34.9688 32.6667 34.9688 29.9531C34.9688 27.2395 32.7605 25.0312 30.0469 25.0312Z" fill="white"/>
</svg>
