<svg width="24" height="24" viewBox="0 0 24 24" fill="none" xmlns="http://www.w3.org/2000/svg">
<g clip-path="url(#clip0_1460_82)">
<path d="M24 4.55923C23.1167 4.95065 22.1689 5.2161 21.173 5.33461C22.1899 4.7257 22.9682 3.7599 23.3371 2.61261C22.3833 3.17649 21.3305 3.58594 20.2087 3.8079C19.3104 2.84959 18.0326 2.25269 16.6153 2.25269C13.8964 2.25269 11.6918 4.45727 11.6918 7.17476C11.6918 7.56017 11.7353 7.9366 11.8193 8.29657C7.72804 8.09108 4.10023 6.13096 1.67219 3.15249C1.24776 3.87837 1.00631 4.72417 1.00631 5.62704C1.00631 7.33523 1.87615 8.84245 3.19592 9.72425C2.38905 9.69727 1.63019 9.47531 0.965835 9.10637V9.16786C0.965835 11.5524 2.66352 13.5425 4.91458 13.9955C4.50215 14.1064 4.06725 14.1679 3.61733 14.1679C3.29941 14.1679 2.99195 14.1364 2.6905 14.0764C3.31737 16.0336 5.13505 17.4568 7.28866 17.4958C5.60447 18.8156 3.48086 19.5999 1.17431 19.5999C0.776894 19.5999 0.385443 19.5759 3.05176e-05 19.5324C2.17913 20.9317 4.76615 21.7475 7.54663 21.7475C16.6034 21.7475 21.554 14.2459 21.554 7.74017L21.5375 7.1028C22.5048 6.41288 23.3416 5.54606 24 4.55923Z" fill="white"/>
</g>
<defs>
<clipPath id="clip0_1460_82">
<rect width="24" height="24" fill="white"/>
</clipPath>
</defs>
</svg>
