<svg width="60" height="60" viewBox="0 0 60 60" fill="none" xmlns="http://www.w3.org/2000/svg">
<g clip-path="url(#clip0_1460_86)">
<path d="M42 22.5592C41.1167 22.9506 40.1689 23.2161 39.173 23.3346C40.1899 22.7257 40.9682 21.7599 41.3371 20.6126C40.3833 21.1765 39.3305 21.5859 38.2087 21.8079C37.3104 20.8496 36.0326 20.2527 34.6153 20.2527C31.8964 20.2527 29.6918 22.4573 29.6918 25.1748C29.6918 25.5602 29.7353 25.9366 29.8193 26.2966C25.728 26.0911 22.1002 24.131 19.6722 21.1525C19.2478 21.8784 19.0063 22.7242 19.0063 23.627C19.0063 25.3352 19.8761 26.8424 21.1959 27.7243C20.3891 27.6973 19.6302 27.4753 18.9658 27.1064V27.1679C18.9658 29.5524 20.6635 31.5425 22.9146 31.9955C22.5022 32.1064 22.0672 32.1679 21.6173 32.1679C21.2994 32.1679 20.992 32.1364 20.6905 32.0764C21.3174 34.0336 23.1351 35.4568 25.2887 35.4958C23.6045 36.8156 21.4809 37.5999 19.1743 37.5999C18.7769 37.5999 18.3854 37.5759 18 37.5324C20.1791 38.9317 22.7662 39.7475 25.5466 39.7475C34.6034 39.7475 39.554 32.2459 39.554 25.7402L39.5375 25.1028C40.5048 24.4129 41.3416 23.5461 42 22.5592Z" fill="white"/>
</g>
<circle cx="30" cy="30" r="29.5" stroke="white"/>
<defs>
<clipPath id="clip0_1460_86">
<rect width="24" height="24" fill="white" transform="translate(18 18)"/>
</clipPath>
</defs>
</svg>
