<svg width="60" height="60" viewBox="0 0 60 60" fill="none" xmlns="http://www.w3.org/2000/svg">
<circle cx="30" cy="30" r="29.5" stroke="white"/>
<path d="M16 23.3V37.8C16 38.5 16.2 39.1 16.6 39.6L26.5 30.9L16 23.3Z" fill="white"/>
<path d="M31.7 32C30.6 32.8 29.1 32.8 27.9 32L27.6 31.7L17.6 40.5C18 40.8 18.6 41 19.3 41H40.3C41 41 41.6 40.8 42.1 40.5L32.1 31.7L31.7 32Z" fill="white"/>
<path d="M33.1 30.9L43 39.6C43.4 39.1 43.6 38.4 43.6 37.8V23.3L33.1 30.9Z" fill="white"/>
<path d="M30.9 30.9L43.2 21.9C42.7 20.8 41.5 20 40.2 20H19.2C18 20 16.8 20.8 16.3 21.9L28.6 30.9C29.3 31.4 30.2 31.4 30.9 30.9Z" fill="white"/>
</svg>
