<svg width="60" height="60" viewBox="0 0 60 60" fill="none" xmlns="http://www.w3.org/2000/svg">
<circle cx="30" cy="30" r="29.5" stroke="white"/>
<g clip-path="url(#clip0_1460_87)">
<path d="M35.999 18.005L32.8868 18C29.3903 18 27.1307 20.3183 27.1307 23.9064V26.6296H24.0015C23.7311 26.6296 23.5121 26.8488 23.5121 27.1192V31.0649C23.5121 31.3353 23.7313 31.5542 24.0015 31.5542H27.1307V41.5104C27.1307 41.7808 27.3497 41.9998 27.6201 41.9998H31.7028C31.9732 41.9998 32.1922 41.7805 32.1922 41.5104V31.5542H35.8509C36.1213 31.5542 36.3403 31.3353 36.3403 31.0649L36.3418 27.1192C36.3418 26.9894 36.2901 26.865 36.1985 26.7732C36.1068 26.6813 35.982 26.6296 35.8522 26.6296H32.1922V24.3211C32.1922 23.2115 32.4566 22.6482 33.9019 22.6482L35.9985 22.6475C36.2686 22.6475 36.4876 22.4283 36.4876 22.1581V18.4944C36.4876 18.2245 36.2689 18.0055 35.999 18.005Z" fill="white"/>
</g>
<defs>
<clipPath id="clip0_1460_87">
<rect width="24" height="23.9998" fill="white" transform="translate(18 18)"/>
</clipPath>
</defs>
</svg>
