<svg width="28" height="21" viewBox="0 0 28 21" fill="none" xmlns="http://www.w3.org/2000/svg">
<path d="M0 3.30005V17.8C0 18.5 0.2 19.1 0.6 19.6L10.5 10.9L0 3.30005Z" fill="white"/>
<path d="M15.7 12C14.6 12.8 13.1 12.8 11.9 12L11.6 11.7L1.59998 20.5C1.99998 20.8 2.59998 21 3.29998 21H24.3C25 21 25.6 20.8 26.1 20.5L16.1 11.7L15.7 12Z" fill="white"/>
<path d="M17.1 10.9L27 19.6C27.4 19.1 27.6 18.4 27.6 17.8V3.30005L17.1 10.9Z" fill="white"/>
<path d="M14.9 10.9L27.2 1.9C26.7 0.8 25.5 0 24.2 0H3.19999C1.99999 0 0.799988 0.8 0.299988 1.9L12.6 10.9C13.3 11.4 14.2 11.4 14.9 10.9Z" fill="white"/>
</svg>
