<svg width="24" height="24" viewBox="0 0 24 24" fill="none" xmlns="http://www.w3.org/2000/svg">
<g clip-path="url(#clip0_1460_56)">
<path d="M17.999 0.00499355L14.8868 0C11.3903 0 9.13069 2.31826 9.13069 5.90637V8.6296H6.00148C5.73108 8.6296 5.51212 8.84882 5.51212 9.11922V13.0649C5.51212 13.3353 5.73133 13.5542 6.00148 13.5542H9.13069V23.5104C9.13069 23.7808 9.34966 23.9998 9.62006 23.9998H13.7028C13.9732 23.9998 14.1922 23.7805 14.1922 23.5104V13.5542H17.8509C18.1213 13.5542 18.3403 13.3353 18.3403 13.0649L18.3418 9.11922C18.3418 8.98939 18.2901 8.86505 18.1985 8.77317C18.1068 8.68129 17.982 8.6296 17.8522 8.6296H14.1922V6.32108C14.1922 5.21152 14.4566 4.64825 15.9019 4.64825L17.9985 4.6475C18.2686 4.6475 18.4876 4.42828 18.4876 4.15813V0.494361C18.4876 0.22446 18.2689 0.0054929 17.999 0.00499355Z" fill="white"/>
</g>
<defs>
<clipPath id="clip0_1460_56">
<rect width="24" height="23.9998" fill="white"/>
</clipPath>
</defs>
</svg>
