<svg width="218" height="94" viewBox="0 0 218 94" fill="none" xmlns="http://www.w3.org/2000/svg">
<g clip-path="url(#clip0_121_6)">
<path d="M41.2068 45.8986C41.2408 45.7019 41.2841 45.5085 41.3367 45.3186L31.6814 42.5476C31.4885 43.0548 31.2579 43.547 30.9914 44.02L41.2068 45.8986Z" fill="white"/>
<path d="M54.3662 62.1401L49.7665 52.4287C49.5888 52.5111 49.4066 52.585 49.22 52.6504L53.2486 63.8928C53.5646 63.2747 53.9388 62.6878 54.3662 62.1401Z" fill="white"/>
<path d="M51.3379 51.3768C51.1934 51.5102 51.0426 51.6366 50.8855 51.7559L57.038 59.6852C57.4918 59.3893 57.9671 59.1272 58.4598 58.9013L51.3379 51.3768Z" fill="white"/>
<path d="M34.8667 58.5725L42.8056 51.1205C42.6694 50.9787 42.5402 50.8306 42.4181 50.6761L32.791 58.0843C33.4973 58.1792 34.1925 58.3428 34.8667 58.5725Z" fill="white"/>
<path d="M84.0201 38.6708C84.0195 39.1892 83.9822 39.7069 83.9086 40.2201L93.3986 38.4675C93.4291 38.4619 93.4581 38.4502 93.4839 38.4331C93.5097 38.4159 93.5318 38.3938 93.5488 38.3679C93.5657 38.342 93.5772 38.313 93.5826 38.2826C93.588 38.2522 93.5871 38.221 93.58 38.1909L93.1237 36.2508C92.9588 35.552 92.779 34.8607 92.5843 34.1769C92.5759 34.1479 92.5619 34.1208 92.543 34.0972C92.5241 34.0735 92.5007 34.0538 92.4742 34.0392C92.4477 34.0246 92.4185 34.0153 92.3883 34.012C92.3582 34.0086 92.3277 34.0112 92.2986 34.0196L83.7972 36.4663C83.9458 37.1918 84.0205 37.9304 84.0201 38.6708Z" fill="white"/>
<path d="M43.5136 51.7521C43.3569 51.633 43.2065 51.5067 43.0622 51.3731L35.8785 58.9743C36.3745 59.2004 36.8529 59.463 37.3097 59.76L43.5136 51.7521Z" fill="white"/>
<path d="M51.9836 50.679C51.8613 50.8336 51.7318 50.9819 51.5952 51.1239L59.4642 58.4994C60.1323 58.2695 60.8213 58.1047 61.5214 58.0073L51.9836 50.679Z" fill="white"/>
<path d="M50.6638 41.9499L73.7247 8.37453C73.7422 8.34904 73.7544 8.32027 73.7604 8.28997C73.7664 8.25967 73.7662 8.22847 73.7598 8.19825C73.7533 8.16803 73.7408 8.13943 73.723 8.11417C73.7051 8.08891 73.6823 8.06752 73.6559 8.05129L71.9533 7.0044C71.3398 6.62771 70.721 6.26683 70.0971 5.92176C70.0705 5.90716 70.0413 5.89792 70.0112 5.89457C69.9811 5.89122 69.9505 5.89383 69.9214 5.90225C69.8923 5.91067 69.8651 5.92474 69.8414 5.94364C69.8178 5.96254 69.7981 5.9859 69.7835 6.01239L50.153 41.6331C50.3289 41.7304 50.4991 41.836 50.6638 41.9499Z" fill="white"/>
<path d="M58.2341 20.0867C58.235 21.8267 57.8192 23.5419 57.0211 25.0898C56.223 26.6376 55.0657 27.9736 53.6452 28.9867L49.2615 41.2295C49.4513 41.2975 49.6367 41.3744 49.8175 41.4602L67.2316 4.67046C67.2448 4.64252 67.2522 4.6122 67.2533 4.58133C67.2545 4.55047 67.2493 4.5197 67.2381 4.49088C67.227 4.46207 67.21 4.43581 67.1884 4.41369C67.1667 4.39158 67.1408 4.37407 67.1122 4.36222L65.2644 3.59772C64.5985 3.3228 63.9301 3.06431 63.259 2.82225C63.2305 2.81203 63.2002 2.80752 63.1699 2.80898C63.1396 2.81044 63.1099 2.81785 63.0825 2.83076C63.0551 2.84368 63.0305 2.86186 63.0102 2.88425C62.9898 2.90665 62.9741 2.93283 62.9639 2.96128L57.8543 17.2314C58.1064 18.1624 58.2341 19.1225 58.2341 20.0867Z" fill="white"/>
<path d="M56.6317 14.3905L60.2076 2.03329C60.2162 2.00361 60.2187 1.97251 60.2148 1.94186C60.211 1.91121 60.201 1.88165 60.1853 1.85497C60.1697 1.82829 60.1488 1.80505 60.1239 1.78665C60.099 1.76825 60.0706 1.75507 60.0404 1.74792L58.0939 1.28619C57.3926 1.12037 56.6914 0.971184 55.9902 0.838641C55.9604 0.83308 55.9298 0.833433 55.9001 0.83968C55.8705 0.845927 55.8423 0.857945 55.8173 0.875046C55.7923 0.892146 55.771 0.913993 55.7544 0.939332C55.7379 0.964672 55.7266 0.993008 55.7211 1.02271L53.8141 11.3065C54.9419 12.1465 55.8983 13.1932 56.6317 14.3905Z" fill="white"/>
<path d="M83.083 34.2463L91.4527 31.2719C91.4819 31.2615 91.5087 31.2454 91.5315 31.2244C91.5542 31.2034 91.5725 31.178 91.5851 31.1498C91.5977 31.1216 91.6045 31.0911 91.6049 31.0602C91.6054 31.0294 91.5996 30.9987 91.5878 30.9701L90.828 29.1267C90.5538 28.4629 90.266 27.8088 89.9648 27.1644C89.9519 27.1371 89.9338 27.1125 89.9114 27.0922C89.8889 27.0718 89.8627 27.0561 89.8342 27.0459C89.8056 27.0356 89.7754 27.0311 89.7451 27.0326C89.7148 27.034 89.6851 27.0414 89.6576 27.0543L80.991 31.1253C81.8632 32.0382 82.5709 33.094 83.083 34.2463Z" fill="white"/>
<path d="M79.092 29.536L88.3732 24.4544C88.4004 24.4395 88.4243 24.4193 88.4434 24.395C88.4625 24.3706 88.4764 24.3427 88.4844 24.3128C88.4924 24.283 88.4941 24.2518 88.4897 24.2213C88.4852 24.1907 88.4745 24.1614 88.4583 24.135L87.4134 22.4356C87.0366 21.8238 86.648 21.2236 86.2475 20.6353C86.2305 20.6103 86.2086 20.5889 86.1832 20.5724C86.1578 20.5559 86.1294 20.5445 86.0996 20.5389C86.0698 20.5333 86.0392 20.5337 86.0095 20.5399C85.9798 20.5461 85.9517 20.5581 85.9267 20.5752L75.157 27.9229C76.5621 28.1988 77.8991 28.7469 79.092 29.536Z" fill="white"/>
<path d="M51.4014 42.5494L79.4012 12.9226C79.4225 12.9001 79.4389 12.8736 79.4496 12.8446C79.4602 12.8156 79.4649 12.7847 79.4632 12.7539C79.4616 12.723 79.4536 12.6928 79.4399 12.6651C79.4262 12.6374 79.407 12.6128 79.3834 12.5927L77.8639 11.2963C77.3161 10.8297 76.7608 10.3779 76.1979 9.94092C76.174 9.92241 76.1465 9.90879 76.1173 9.90084C76.088 9.8929 76.0575 9.89078 76.0274 9.89462C75.9973 9.89846 75.9683 9.90817 75.942 9.9232C75.9157 9.93823 75.8926 9.95828 75.8741 9.98221L50.9466 42.1579C51.1047 42.281 51.2563 42.4115 51.4014 42.5494Z" fill="white"/>
<path d="M52.0466 43.2668L62.6016 35.1445C63.298 33.1077 64.5809 31.3201 66.2906 30.0045C68.0002 28.6889 70.0609 27.9036 72.2157 27.7464L84.3788 18.3866C84.4034 18.3677 84.4238 18.3441 84.4389 18.3171C84.454 18.2901 84.4634 18.2604 84.4667 18.2297C84.4699 18.199 84.4668 18.1679 84.4577 18.1384C84.4485 18.1089 84.4334 18.0816 84.4133 18.058L83.1172 16.5399C82.6499 15.9934 82.1728 15.4603 81.6859 14.9406C81.6651 14.9186 81.6402 14.9009 81.6126 14.8884C81.5849 14.876 81.5551 14.8691 81.5248 14.8682C81.4945 14.8673 81.4643 14.8723 81.4359 14.8831C81.4076 14.8938 81.3816 14.91 81.3596 14.9307L51.6596 42.8094C51.7959 42.9554 51.9249 43.1079 52.0466 43.2668Z" fill="white"/>
<path d="M45.1733 52.6469C44.987 52.5813 44.8052 52.5071 44.6276 52.4243L39.9913 62.2192C40.4213 62.7696 40.7975 63.3596 41.1149 63.9812L45.1733 52.6469Z" fill="white"/>
<path d="M52.7301 44.4001C52.8134 44.5801 52.8879 44.7646 52.9535 44.9536L62.4143 41.5915C62.2697 41.0692 62.1644 40.537 62.0992 39.9992L52.7301 44.4001Z" fill="white"/>
<path d="M62.7207 42.5319L53.0651 45.3107C53.118 45.5008 53.1616 45.6945 53.196 45.8918L63.4087 44.0058C63.1429 43.5322 62.9129 43.0396 62.7207 42.5319Z" fill="white"/>
<path d="M43.793 51.9535L38.0629 60.2962C38.491 60.6288 38.8939 60.9922 39.2684 61.3837L44.2969 52.2592C44.1237 52.1652 43.9557 52.0633 43.793 51.9535Z" fill="white"/>
<path d="M30.4417 44.8971C30.0399 45.4753 29.5833 46.0138 29.0783 46.5053L41.1191 46.8341C41.1224 46.6342 41.135 46.4369 41.1571 46.2421L30.4417 44.8971Z" fill="white"/>
<path d="M41.4485 44.9593C41.5138 44.7707 41.5879 44.5865 41.6708 44.4067L32.3075 40.0112C32.2418 40.5482 32.1361 41.0796 31.9913 41.6009L41.4485 44.9593Z" fill="white"/>
<path d="M81.1526 46.0475L94.1676 45.6825C94.1986 45.6816 94.2291 45.6745 94.2573 45.6615C94.2854 45.6486 94.3107 45.6301 94.3314 45.6072C94.3522 45.5842 94.3681 45.5573 94.3781 45.5281C94.3881 45.4989 94.3921 45.4679 94.3898 45.4371L94.2401 43.45C94.1856 42.7343 94.1153 42.0236 94.029 41.3181C94.0253 41.2881 94.0157 41.2592 94.0007 41.2329C93.9857 41.2066 93.9656 41.1836 93.9417 41.1651C93.9177 41.1465 93.8903 41.1329 93.8611 41.1249C93.8318 41.117 93.8013 41.1148 93.7712 41.1187L83.3538 42.4341C82.8626 43.7695 82.1149 44.9968 81.1526 46.0475Z" fill="white"/>
<path d="M63.9567 44.8835L53.246 46.2359C53.2684 46.431 53.2813 46.6288 53.2846 46.8292L65.3156 46.4917C64.8122 46 64.3572 45.4615 63.9567 44.8835Z" fill="white"/>
<path d="M50.6056 51.9573C50.4427 52.0669 50.2744 52.1687 50.1007 52.2627L55.0911 61.302C55.4635 60.9125 55.8641 60.5508 56.2896 60.2196L50.6056 51.9573Z" fill="white"/>
<path d="M45.4884 41.1181C45.6799 41.0622 45.8751 41.0156 46.074 40.9784L44.1418 30.6021C43.4765 30.4085 42.8313 30.1522 42.2147 29.8367L45.4884 41.1181Z" fill="white"/>
<path d="M51.8596 10.1466L53.0716 0.570693C53.0755 0.540049 53.0731 0.50894 53.0645 0.479247C53.056 0.449555 53.0415 0.421897 53.0219 0.397947C53.0023 0.373996 52.9781 0.35425 52.9506 0.339905C52.9231 0.32556 52.893 0.316912 52.8621 0.314486L50.8674 0.157954C50.1488 0.102081 49.4328 0.0626273 48.7195 0.0395929C48.6891 0.0386873 48.6589 0.0437496 48.6306 0.0544892C48.6022 0.0652287 48.5763 0.0814345 48.5543 0.102178C48.5322 0.122921 48.5145 0.147793 48.5021 0.175368C48.4897 0.202944 48.483 0.232681 48.4822 0.262874L48.2367 9.17763C49.4914 9.29025 50.7171 9.61805 51.8596 10.1466Z" fill="white"/>
<path d="M32.3924 38.6708C32.3924 38.7497 32.388 38.8276 32.3864 38.9061L41.8371 44.0715C41.9318 43.8958 42.0347 43.7254 42.1458 43.5604L32.2305 36.8064C32.3374 37.4222 32.3916 38.0459 32.3924 38.6708Z" fill="white"/>
<path d="M46.4216 40.9241C46.619 40.8989 46.8192 40.8834 47.0221 40.8774L46.7436 31.0311C46.2045 31.0075 45.6678 30.9446 45.138 30.8427L46.4216 40.9241Z" fill="white"/>
<path d="M50.2312 30.6278L48.3124 40.9753C48.5115 41.0119 48.7069 41.0579 48.8987 41.1134L52.1468 29.889C51.533 30.1946 50.8917 30.442 50.2312 30.6278Z" fill="white"/>
<path d="M62.1835 36.7741L52.2516 43.5502C52.3632 43.7151 52.4666 43.8856 52.5618 44.0617L62.0212 38.8825C62.0199 38.8118 62.0158 38.7418 62.0158 38.6708C62.0167 38.0349 62.0727 37.4003 62.1835 36.7741Z" fill="white"/>
<path d="M47.3638 40.8769C47.5667 40.8822 47.767 40.8972 47.9645 40.9219L49.2383 30.8583C48.7088 30.9555 48.1729 31.0139 47.6349 31.0332L47.3638 40.8769Z" fill="white"/>
<path d="M45.5286 52.7592L41.7998 65.645C42.4483 67.6995 42.4748 69.8988 41.876 71.9682C41.2771 74.0376 40.0795 75.8855 38.4325 77.2812L34.1829 91.9667C34.1743 91.9963 34.1718 92.0275 34.1756 92.0581C34.1795 92.0888 34.1895 92.1183 34.2051 92.145C34.2208 92.1717 34.2417 92.1949 34.2666 92.2133C34.2915 92.2317 34.3199 92.2449 34.3501 92.252L36.2965 92.7138C36.9978 92.8796 37.6991 93.0288 38.4003 93.1613C38.4301 93.1669 38.4607 93.1666 38.4904 93.1603C38.52 93.1541 38.5482 93.142 38.5732 93.125C38.5982 93.1079 38.6196 93.086 38.6361 93.0607C38.6526 93.0353 38.6639 93.007 38.6694 92.9773L46.1025 52.8926C45.9078 52.8572 45.7165 52.8127 45.5286 52.7592Z" fill="white"/>
<path d="M62.7324 79.8039C61.3144 79.7646 59.9175 79.4514 58.6195 78.8815L62.9886 91.0744C62.9991 91.1035 63.0153 91.1301 63.0364 91.1528C63.0575 91.1755 63.083 91.1936 63.1113 91.2062C63.1396 91.2188 63.1702 91.2255 63.2012 91.2259C63.2322 91.2264 63.263 91.2206 63.2917 91.2089L65.1428 90.4522C65.8094 90.1791 66.4662 89.8926 67.1132 89.5926C67.1406 89.5798 67.1653 89.5617 67.1857 89.5394C67.2062 89.5171 67.222 89.491 67.2322 89.4625C67.2425 89.4341 67.2471 89.404 67.2456 89.3738C67.2442 89.3436 67.2367 89.314 67.2238 89.2867L62.7324 79.8039Z" fill="white"/>
<path d="M55.9684 77.2327C54.3031 75.8354 53.0915 73.9775 52.4869 71.8941C51.8824 69.8108 51.912 67.5956 52.5721 65.5291L48.8672 52.7615C48.6792 52.8147 48.4878 52.8589 48.2928 52.8942L55.7631 93.0122C55.7687 93.0426 55.7805 93.0715 55.7977 93.0972C55.8149 93.1229 55.8372 93.1449 55.8631 93.1618C55.8891 93.1787 55.9182 93.1901 55.9488 93.1955C55.9793 93.2009 56.0107 93.2 56.0408 93.1929L57.9891 92.7385C58.6907 92.5742 59.3849 92.3952 60.0715 92.2013C60.1007 92.193 60.1279 92.179 60.1516 92.1602C60.1754 92.1414 60.1951 92.1181 60.2098 92.0917C60.2245 92.0652 60.2338 92.0362 60.2372 92.0062C60.2405 91.9761 60.2379 91.9458 60.2295 91.9167L55.9684 77.2327Z" fill="white"/>
<path d="M46.4429 52.9445L41.3189 93.4293C41.315 93.4599 41.3174 93.491 41.3259 93.5207C41.3345 93.5504 41.349 93.5781 41.3686 93.602C41.3881 93.626 41.4124 93.6457 41.4399 93.6601C41.4673 93.6744 41.4974 93.6831 41.5284 93.6855L43.5231 93.842C44.2417 93.8979 44.9577 93.9374 45.671 93.9604C45.7013 93.9613 45.7315 93.9562 45.7599 93.9455C45.7882 93.9348 45.8142 93.9186 45.8362 93.8978C45.8583 93.8771 45.876 93.8522 45.8884 93.8246C45.9007 93.7971 45.9075 93.7673 45.9083 93.7371L47.0303 52.9888C46.832 52.9833 46.6361 52.9686 46.4429 52.9445Z" fill="white"/>
<path d="M47.3646 52.989L48.5182 93.7781C48.5191 93.809 48.5262 93.8393 48.5392 93.8674C48.5522 93.8954 48.5708 93.9205 48.5938 93.9412C48.6169 93.9619 48.6439 93.9777 48.6732 93.9877C48.7026 93.9977 48.7337 94.0017 48.7646 93.9994L50.7599 93.8502C51.4786 93.796 52.1923 93.726 52.9007 93.6401C52.9308 93.6364 52.9599 93.6268 52.9863 93.6118C53.0126 93.5969 53.0358 93.577 53.0544 93.5531C53.073 93.5292 53.0867 93.502 53.0947 93.4728C53.1027 93.4437 53.1048 93.4133 53.101 93.3833L47.9523 52.9456C47.759 52.9693 47.5631 52.9838 47.3646 52.989Z" fill="white"/>
<path d="M21.5933 74.0896L14.9893 81.0773C14.968 81.0998 14.9516 81.1264 14.9409 81.1554C14.9302 81.1844 14.9256 81.2152 14.9273 81.2461C14.9289 81.2769 14.9369 81.3071 14.9506 81.3348C14.9643 81.3625 14.9835 81.3872 15.0071 81.4073L16.5266 82.7036C17.0744 83.1703 17.6297 83.6221 18.1926 84.059C18.2165 84.0775 18.2439 84.0912 18.2732 84.0991C18.3024 84.107 18.333 84.1092 18.3631 84.1053C18.3932 84.1015 18.4222 84.0918 18.4485 84.0767C18.4748 84.0617 18.4979 84.0417 18.5164 84.0177L23.9119 77.0533C22.9741 76.2052 22.1898 75.2026 21.5933 74.0896Z" fill="white"/>
<path d="M31.6284 79.887L27.1589 89.3295C27.1457 89.3574 27.1383 89.3877 27.1372 89.4186C27.1361 89.4495 27.1412 89.4802 27.1524 89.5091C27.1636 89.5379 27.1805 89.5641 27.2021 89.5862C27.2238 89.6084 27.2497 89.6259 27.2784 89.6377L29.1262 90.4022C29.792 90.6771 30.4604 90.9356 31.1315 91.1777C31.16 91.1879 31.1903 91.1924 31.2206 91.191C31.2509 91.1895 31.2806 91.1821 31.308 91.1692C31.3355 91.1563 31.36 91.1381 31.3804 91.1157C31.4007 91.0933 31.4164 91.0671 31.4266 91.0386L35.7515 78.96C34.4507 79.5328 33.0502 79.8477 31.6284 79.887Z" fill="white"/>
<path d="M25.6651 78.3466L20.6658 85.6254C20.6483 85.6509 20.6361 85.6797 20.6301 85.71C20.6241 85.7403 20.6243 85.7715 20.6307 85.8017C20.6371 85.8319 20.6497 85.8605 20.6675 85.8858C20.6854 85.911 20.7082 85.9324 20.7346 85.9486L22.4371 86.9955C23.0507 87.3722 23.6695 87.7331 24.2934 88.0782C24.32 88.0928 24.3492 88.102 24.3793 88.1054C24.4094 88.1087 24.4399 88.1061 24.4691 88.0977C24.4982 88.0893 24.5254 88.0752 24.549 88.0563C24.5727 88.0374 24.5924 88.014 24.6069 87.9875L29.1802 79.6891C27.9394 79.4475 26.75 78.9932 25.6651 78.3466Z" fill="white"/>
<path d="M72.7636 74.0139C72.1677 75.1237 71.385 76.1235 70.4494 76.9697L75.9274 84.0297C75.9464 84.0542 75.9702 84.0745 75.9972 84.0896C76.0243 84.1046 76.0542 84.114 76.085 84.1172C76.1159 84.1204 76.147 84.1174 76.1767 84.1082C76.2063 84.0991 76.2337 84.0841 76.2574 84.0641L77.7818 82.7734C78.3306 82.308 78.8659 81.8328 79.3877 81.3479C79.4098 81.3273 79.4276 81.3025 79.4401 81.2749C79.4526 81.2474 79.4595 81.2177 79.4604 81.1875C79.4614 81.1573 79.4563 81.1272 79.4455 81.099C79.4347 81.0708 79.4185 81.0449 79.3977 81.023L72.7636 74.0139Z" fill="white"/>
<path d="M93.3635 55.4906L53.1735 48.0994C53.1353 48.2947 53.0877 48.4865 53.0309 48.6747L92.3487 59.9585C92.3785 59.9671 92.4097 59.9695 92.4405 59.9657C92.4713 59.9619 92.501 59.9519 92.5278 59.9363C92.5546 59.9208 92.5779 59.9 92.5964 59.8751C92.6148 59.8503 92.6281 59.8221 92.6353 59.792L93.0989 57.8536C93.2654 57.1552 93.4152 56.4569 93.5483 55.7586C93.5539 55.7289 93.5536 55.6984 93.5473 55.6688C93.541 55.6393 93.529 55.6112 93.5118 55.5863C93.4946 55.5614 93.4727 55.5402 93.4472 55.5237C93.4218 55.5073 93.3933 55.496 93.3635 55.4906Z" fill="white"/>
<path d="M45.7888 0.0378856V0.037323L45.7624 0.0384126L45.7631 0.038852L45.7888 0.0378856Z" fill="white"/>
<path d="M94.1265 48.2816L78.9938 47.8683C77.1276 49.0721 74.9389 49.684 72.7163 49.6233C70.4938 49.5626 68.3419 48.8321 66.5449 47.5283L53.2814 47.1661C53.2738 47.3659 53.2566 47.563 53.2297 47.7574L93.8174 52.852C93.8482 52.8558 93.8794 52.8535 93.9092 52.8449C93.939 52.8364 93.9668 52.822 93.9908 52.8025C94.0149 52.783 94.0347 52.7588 94.0491 52.7315C94.0635 52.7041 94.0722 52.6741 94.0747 52.6434L94.2318 50.6568C94.288 49.9412 94.3276 49.2282 94.3507 48.5178C94.3516 48.4876 94.3465 48.4576 94.3357 48.4293C94.3249 48.4011 94.3087 48.3753 94.2878 48.3533C94.267 48.3314 94.242 48.3138 94.2143 48.3014C94.1867 48.2891 94.1568 48.2824 94.1265 48.2816Z" fill="white"/>
<path d="M73.9821 67.5813C74.151 68.995 74.0394 70.428 73.6536 71.799L81.4141 79.0727C81.4367 79.0939 81.4634 79.1103 81.4925 79.1209C81.5216 79.1315 81.5526 79.1361 81.5836 79.1344C81.6145 79.1328 81.6448 79.1249 81.6727 79.1112C81.7005 79.0976 81.7252 79.0785 81.7454 79.055L83.0472 77.5417C83.5157 76.9963 83.9694 76.4432 84.4082 75.8827C84.4268 75.8588 84.4405 75.8315 84.4484 75.8024C84.4564 75.7732 84.4586 75.7428 84.4547 75.7129C84.4508 75.6829 84.4411 75.654 84.426 75.6278C84.4109 75.6016 84.3908 75.5786 84.3667 75.5602L73.9821 67.5813Z" fill="white"/>
<path d="M20.3022 68.9386C20.3031 68.5021 20.33 68.066 20.3826 67.6327L10.0117 75.6133C9.98716 75.6322 9.96672 75.6559 9.95162 75.6829C9.93652 75.7098 9.92708 75.7396 9.92385 75.7703C9.92063 75.801 9.92369 75.8321 9.93286 75.8616C9.94203 75.8911 9.95711 75.9184 9.97719 75.942L11.2733 77.46C11.7406 78.0066 12.2177 78.5397 12.7046 79.0593C12.7254 79.0813 12.7503 79.0991 12.7779 79.1115C12.8056 79.1239 12.8354 79.1308 12.8657 79.1317C12.896 79.1327 12.9262 79.1276 12.9546 79.1169C12.983 79.1062 13.0089 79.09 13.031 79.0692L20.703 71.8677C20.4372 70.9138 20.3023 69.9285 20.3022 68.9386Z" fill="white"/>
<path d="M68.7006 78.2607C67.6185 78.9064 66.4324 79.3607 65.1948 79.6035L69.8344 88.0076C69.8494 88.0347 69.8697 88.0584 69.8941 88.0775C69.9185 88.0965 69.9466 88.1104 69.9766 88.1183C70.0066 88.1262 70.0378 88.128 70.0685 88.1235C70.0992 88.1191 70.1287 88.1085 70.1551 88.0923L71.8616 87.0518C72.476 86.6765 73.0786 86.2895 73.6694 85.8907C73.6945 85.8737 73.7159 85.8519 73.7325 85.8267C73.7491 85.8014 73.7606 85.7731 73.7662 85.7434C73.7718 85.7137 73.7714 85.6832 73.7652 85.6537C73.7589 85.6241 73.7469 85.5961 73.7297 85.5712L68.7006 78.2607Z" fill="white"/>
<path d="M88.3531 69.4949L52.5061 49.9026C52.4087 50.0746 52.3034 50.2412 52.1901 50.4023L63.2008 57.9025C65.3685 57.9306 67.4796 58.5958 69.2689 59.8147C71.0583 61.0336 72.4462 62.7517 73.2584 64.7534L85.9811 73.4197C86.0067 73.4372 86.0356 73.4492 86.066 73.4552C86.0964 73.4612 86.1278 73.461 86.1581 73.4546C86.1884 73.4482 86.2172 73.4358 86.2425 73.418C86.2679 73.4002 86.2894 73.3775 86.3057 73.3512L87.3569 71.6557C87.7352 71.0446 88.0975 70.4284 88.444 69.8071C88.4587 69.7806 88.468 69.7516 88.4713 69.7216C88.4747 69.6916 88.4721 69.6612 88.4636 69.6322C88.4552 69.6032 88.441 69.5761 88.4221 69.5526C88.4031 69.529 88.3796 69.5094 88.3531 69.4949Z" fill="white"/>
<path d="M91.4168 62.7034L52.9127 49.0303C52.8438 49.2162 52.7662 49.3977 52.6799 49.5746L89.7006 66.9534C89.7286 66.9666 89.7591 66.974 89.79 66.9751C89.821 66.9762 89.8519 66.9711 89.8809 66.9599C89.9098 66.9488 89.9362 66.932 89.9584 66.9104C89.9806 66.8889 89.9982 66.863 90.0101 66.8345L90.7778 64.9943C91.0538 64.3313 91.3134 63.6656 91.5565 62.9973C91.5667 62.9689 91.5712 62.9387 91.5698 62.9086C91.5683 62.8784 91.5609 62.8488 91.5479 62.8215C91.5349 62.7942 91.5167 62.7697 91.4942 62.7494C91.4717 62.7292 91.4454 62.7135 91.4168 62.7034Z" fill="white"/>
<path d="M43.7273 41.959C43.8915 41.845 44.0613 41.7391 44.2368 41.6412L24.556 5.99234C24.5411 5.96528 24.5208 5.94152 24.4963 5.9225C24.4719 5.90348 24.4439 5.88959 24.4139 5.88166C24.3839 5.87374 24.3527 5.87196 24.322 5.87641C24.2913 5.88087 24.2618 5.89148 24.2354 5.9076L22.5289 6.94816C21.9145 7.32343 21.3119 7.71046 20.7211 8.10923C20.696 8.12624 20.6746 8.148 20.658 8.17328C20.6414 8.19856 20.6299 8.22685 20.6243 8.25654C20.6187 8.28622 20.6191 8.31672 20.6253 8.34627C20.6316 8.37583 20.6436 8.40386 20.6608 8.42877L43.7273 41.959Z" fill="white"/>
<path d="M42.9922 42.5593C43.1366 42.4214 43.2877 42.2907 43.4454 42.1672L18.463 9.97024C18.4441 9.9458 18.4203 9.92544 18.3932 9.9104C18.3661 9.89536 18.3363 9.88595 18.3054 9.88274C18.2746 9.87953 18.2434 9.88258 18.2137 9.89172C18.1841 9.90085 18.1567 9.91588 18.133 9.93589L16.6086 11.2266C16.0598 11.692 15.5245 12.1671 15.0027 12.652C14.9806 12.6727 14.9628 12.6975 14.9503 12.725C14.9378 12.7526 14.9309 12.7823 14.93 12.8125C14.9291 12.8427 14.9341 12.8727 14.9449 12.901C14.9557 12.9292 14.9719 12.955 14.9927 12.977L42.9922 42.5593Z" fill="white"/>
<path d="M22.1302 27.7416C24.3043 27.8879 26.3858 28.6736 28.1111 29.9991C29.8363 31.3247 31.1276 33.1305 31.8212 35.1876L42.3495 43.2768C42.4704 43.1179 42.5988 42.9654 42.7349 42.8193L12.9763 14.9272C12.9538 14.906 12.9271 14.8897 12.898 14.879C12.8688 14.8684 12.8379 14.8638 12.8069 14.8655C12.7759 14.8671 12.7456 14.875 12.7178 14.8887C12.69 14.9023 12.6652 14.9215 12.6451 14.9449L11.3433 16.4582C10.8747 17.0037 10.4211 17.5567 9.98227 18.1173C9.96367 18.1411 9.95 18.1684 9.94202 18.1976C9.93404 18.2267 9.93191 18.2571 9.93576 18.2871C9.93962 18.317 9.94937 18.3459 9.96446 18.3721C9.97956 18.3983 9.9997 18.4213 10.0237 18.4398L22.1302 27.7416Z" fill="white"/>
<path d="M6.03747 24.5051L15.2821 29.5578C16.4695 28.766 17.8011 28.2136 19.2018 27.9317L8.4094 20.5802C8.38381 20.5628 8.35492 20.5507 8.32449 20.5447C8.29407 20.5387 8.26274 20.5389 8.2324 20.5453C8.20206 20.5517 8.17334 20.5642 8.14797 20.582C8.12261 20.5997 8.10113 20.6225 8.08484 20.6487L7.03358 22.3443C6.65532 22.9553 6.29295 23.5714 5.94645 24.1928C5.93178 24.2192 5.92251 24.2483 5.91914 24.2783C5.91578 24.3084 5.91841 24.3387 5.92686 24.3678C5.93532 24.3968 5.94944 24.4238 5.96842 24.4474C5.9874 24.471 6.01087 24.4906 6.03747 24.5051Z" fill="white"/>
<path d="M44.574 41.4657C44.7543 41.3797 44.9393 41.3024 45.1291 41.234L40.7138 28.9124C38.9465 27.6165 37.6082 25.8243 36.8706 23.7658C36.133 21.7073 36.0296 19.4763 36.5738 17.3588L31.4018 2.92554C31.3914 2.89645 31.3752 2.86977 31.3541 2.84711C31.333 2.82445 31.3075 2.80628 31.2792 2.7937C31.2509 2.78113 31.2203 2.77441 31.1893 2.77395C31.1583 2.77349 31.1275 2.7793 31.0988 2.79103L29.2477 3.54771C28.5811 3.82077 27.9243 4.10729 27.2773 4.40729C27.2498 4.4201 27.2252 4.43819 27.2047 4.46051C27.1843 4.48283 27.1685 4.50895 27.1582 4.53737C27.1479 4.56579 27.1434 4.59595 27.1449 4.62612C27.1463 4.65629 27.1537 4.68588 27.1667 4.71319L44.574 41.4657Z" fill="white"/>
<path d="M46.1258 9.18532L45.8723 0.22194C45.8708 0.184809 45.86 0.148639 45.8409 0.11669C45.8219 0.0847413 45.7951 0.058018 45.7631 0.03893C45.7164 0.0405641 45.6699 0.0426901 45.6232 0.0442011C45.6695 0.0426462 45.716 0.0402656 45.7624 0.0384734C45.7222 0.0114398 45.6743 -0.00184461 45.6259 0.000627584L43.6306 0.149745C42.9118 0.203966 42.1982 0.274021 41.4898 0.35991C41.4597 0.363629 41.4306 0.373229 41.4042 0.388159C41.3779 0.403089 41.3547 0.423055 41.3361 0.446913C41.3175 0.470771 41.3038 0.49805 41.2958 0.527189C41.2878 0.556327 41.2857 0.58675 41.2895 0.616714L42.5084 10.1898C43.647 9.64961 44.8708 9.30977 46.1258 9.18532Z" fill="white"/>
<path d="M37.7654 14.5044C38.4878 13.2928 39.4371 12.2305 40.5616 11.3753L38.6274 0.987739C38.6217 0.957374 38.6099 0.928468 38.5927 0.902768C38.5755 0.877068 38.5533 0.855108 38.5273 0.838216C38.5013 0.821325 38.4722 0.809852 38.4417 0.804492C38.4111 0.799132 38.3798 0.799995 38.3496 0.807031L36.4014 1.26151C35.6997 1.42573 35.0056 1.60479 34.3189 1.7987C34.2898 1.807 34.2626 1.82096 34.2388 1.83977C34.2151 1.85858 34.1953 1.88187 34.1806 1.9083C34.166 1.93474 34.1567 1.9638 34.1533 1.99382C34.1499 2.02383 34.1525 2.05422 34.161 2.08323L37.7654 14.5044Z" fill="white"/>
<path d="M0.263984 45.7184L13.2808 46.0739C12.3143 45.0256 11.5621 43.7998 11.0664 42.465L0.573082 41.1479C0.542311 41.1441 0.511073 41.1465 0.481258 41.155C0.451444 41.1635 0.423672 41.1779 0.399623 41.1974C0.375574 41.2169 0.355748 41.2411 0.341343 41.2684C0.326939 41.2958 0.318255 41.3258 0.315819 41.3566L0.158628 43.3431C0.102523 44.0587 0.062906 44.7717 0.039776 45.4821C0.038869 45.5123 0.0439535 45.5423 0.0547387 45.5706C0.0655238 45.5988 0.0817971 45.6246 0.102626 45.6466C0.123455 45.6685 0.14843 45.6862 0.176119 45.6985C0.203808 45.7108 0.233667 45.7176 0.263984 45.7184Z" fill="white"/>
<path d="M41.1227 47.1703L27.843 47.5428C26.0522 48.836 23.9112 49.5611 21.7 49.6231C19.4887 49.6851 17.3101 49.0812 15.4491 47.8904L0.222849 48.3175C0.191846 48.3183 0.161343 48.3255 0.133184 48.3384C0.105025 48.3514 0.0797971 48.3699 0.059025 48.3928C0.0382529 48.4157 0.0223689 48.4426 0.012334 48.4718C0.00229913 48.5011 -0.00167803 48.532 0.000643048 48.5628L0.150371 50.5499C0.204835 51.2656 0.275181 51.9763 0.361408 52.6819C0.365143 52.7118 0.374783 52.7408 0.389775 52.767C0.404767 52.7933 0.424816 52.8164 0.448773 52.8349C0.47273 52.8534 0.500123 52.867 0.529382 52.875C0.558641 52.883 0.589191 52.8851 0.61928 52.8813L41.1746 47.7602C41.148 47.5663 41.1307 47.3697 41.1227 47.1703Z" fill="white"/>
<path d="M2.97369 31.2965L11.319 34.26C11.8293 33.1077 12.535 32.0515 13.4053 31.1378L4.68999 27.0465C4.66193 27.0333 4.63149 27.026 4.60049 27.0248C4.5695 27.0237 4.5386 27.0289 4.50966 27.04C4.48073 27.0511 4.45436 27.068 4.43215 27.0895C4.40994 27.1111 4.39235 27.1369 4.38045 27.1654L3.61277 29.0056C3.33673 29.6687 3.07717 30.3344 2.83409 31.0026C2.82383 31.0311 2.8193 31.0612 2.82076 31.0914C2.82223 31.1216 2.82966 31.1511 2.84263 31.1784C2.8556 31.2057 2.87385 31.2302 2.89634 31.2505C2.91883 31.2707 2.94512 31.2864 2.97369 31.2965Z" fill="white"/>
<path d="M41.4902 49.0274L2.93776 62.728C2.90855 62.7384 2.88176 62.7546 2.85901 62.7756C2.83625 62.7966 2.81801 62.8219 2.80538 62.8501C2.79276 62.8784 2.78601 62.9088 2.78555 62.9397C2.78509 62.9706 2.79092 63.0012 2.8027 63.0298L3.56252 64.8732C3.83672 65.5371 4.12444 66.1912 4.42566 66.8355C4.43853 66.8629 4.4567 66.8874 4.47911 66.9078C4.50153 66.9281 4.52776 66.9439 4.55629 66.9541C4.58483 66.9643 4.61511 66.9688 4.64541 66.9674C4.6757 66.966 4.70541 66.9586 4.73284 66.9457L41.7221 49.5708C41.6363 49.3943 41.559 49.2131 41.4902 49.0274Z" fill="white"/>
<path d="M41.2308 48.1014L0.991938 55.5324C0.961443 55.538 0.932412 55.5498 0.906601 55.5669C0.880791 55.584 0.858737 55.6062 0.841775 55.632C0.824813 55.6579 0.813295 55.6869 0.807917 55.7173C0.802539 55.7477 0.803413 55.7789 0.810487 55.809L1.26684 57.7492C1.43174 58.4479 1.61155 59.1392 1.80627 59.823C1.81461 59.852 1.82863 59.8792 1.84752 59.9028C1.86641 59.9264 1.88979 59.9461 1.91633 59.9607C1.94288 59.9753 1.97206 59.9846 2.0022 59.988C2.03234 59.9913 2.06285 59.9887 2.09198 59.9803L41.3733 48.6755C41.3167 48.4878 41.2693 48.2964 41.2308 48.1014Z" fill="white"/>
<path d="M31.0908 57.9873L42.212 50.3998C42.0991 50.239 41.9941 50.0727 41.8969 49.9009L6.2279 69.4303C6.17354 69.46 6.12581 69.5005 6.0876 69.5491C6.04938 69.5978 6.02148 69.6537 6.00557 69.7134C5.98966 69.7731 5.98608 69.8354 5.99505 69.8965C6.00402 69.9576 6.02534 70.0163 6.05774 70.069L6.97715 71.5643C7.35399 72.1762 7.74262 72.7763 8.14304 73.3647C8.16012 73.3896 8.18197 73.411 8.20735 73.4275C8.23274 73.4441 8.26115 73.4555 8.29096 73.461C8.32077 73.4666 8.35139 73.4663 8.38107 73.46C8.41074 73.4538 8.43889 73.4418 8.46391 73.4247L21.1211 64.7893C21.935 62.8103 23.3127 61.1118 25.0842 59.9031C26.8558 58.6945 28.9438 58.0285 31.0908 57.9873Z" fill="white"/>
<path d="M1.02697 38.5094L10.5038 40.2522C10.3208 39.0046 10.3551 37.735 10.6051 36.499L2.04178 34.0414C2.01198 34.0328 1.98074 34.0304 1.94996 34.0342C1.91919 34.038 1.88951 34.048 1.86272 34.0636C1.83593 34.0792 1.81259 34.1 1.79412 34.1248C1.77564 34.1496 1.76241 34.1779 1.75522 34.2079L1.29158 36.1464C1.12506 36.8447 0.975248 37.5431 0.842137 38.2414C0.836552 38.2711 0.836906 38.3016 0.843178 38.3311C0.84945 38.3607 0.861518 38.3887 0.878689 38.4136C0.89586 38.4385 0.917797 38.4598 0.943241 38.4762C0.968686 38.4926 0.997138 38.5039 1.02697 38.5094Z" fill="white"/>
<path d="M116.152 8.18985H130.042V11.0608H119.657V18.4337H128.437V21.3047H119.657V31.4835H116.152V8.18985Z" fill="white"/>
<path d="M134.268 8.02679H137.609V11.8111H134.268V8.02679ZM134.268 14.9104H137.609V31.4835H134.268V14.9104Z" fill="white"/>
<path d="M146.389 8.18985V25.6111C146.389 28.0253 147.045 28.7757 149.239 28.7757H149.96V31.4835H149.109C144.26 31.4835 143.048 30.2437 143.048 25.285V8.18985H146.389Z" fill="white"/>
<path d="M152.712 14.9104H155.268L155.53 16.5416C155.99 15.8727 156.621 15.3384 157.359 14.9942C158.096 14.6501 158.912 14.5085 159.723 14.5841C160.652 14.5085 161.585 14.6948 162.413 15.1217C163.241 15.5486 163.933 16.1989 164.407 16.9984C165.357 15.3346 166.832 14.5841 169.157 14.5841C171.975 14.5841 173.744 15.6281 174.497 17.7814C174.874 19.1509 175.029 20.5716 174.956 21.9898V31.4835H171.615V22.3161C171.615 18.8253 170.763 17.4225 168.633 17.4225C166.406 17.4225 165.521 18.9884 165.521 22.8708V31.4835H162.18V22.3487C162.18 18.7928 161.361 17.4225 159.199 17.4225C156.938 17.4225 156.054 18.9558 156.054 22.9687V31.4835H152.712V14.9104Z" fill="white"/>
<path d="M195.203 20.6849C195.203 18.2707 194.254 17.2593 191.96 17.2593C191.262 17.2433 190.57 17.3847 189.934 17.6729C189.299 17.961 188.737 18.3884 188.291 18.9232L185.998 17.2267C187.472 15.4325 189.47 14.5841 192.288 14.5841C195.072 14.5841 196.972 15.4651 197.89 17.1942C198.381 18.1077 198.545 19.1842 198.545 21.2396V31.4835H195.891L195.662 30.4069C194.614 31.4509 193.402 31.8098 190.978 31.8098C186.784 31.8098 185.244 30.4721 185.244 26.753C185.244 22.9359 186.817 21.631 191.534 21.631H195.203L195.203 20.6849ZM191.895 23.9799C189.372 23.9799 188.422 24.7303 188.422 26.6878C188.422 28.5799 189.274 29.1997 191.796 29.1997C193.369 29.1997 194.286 28.9062 194.81 28.2211C195.165 27.586 195.303 26.8531 195.203 26.1331V23.9799L191.895 23.9799Z" fill="white"/>
<path d="M201.461 17.5855V14.9104H203.394L203.558 9.85379H206.735V14.9104H210.011V17.5855H206.735V25.611C206.735 28.0252 207.391 28.8083 209.553 28.7429H210.077V31.4835H209.487C204.508 31.4835 203.394 30.3416 203.394 25.285V17.5855H201.461Z" fill="white"/>
<path d="M116.119 35.2715H119.624V55.6943H130.238V58.5651H116.119V35.2715Z" fill="white"/>
<path d="M134.236 35.1085H137.577V38.8927H134.236V35.1085ZM134.236 41.9921H137.577V58.5651H134.236V41.9921Z" fill="white"/>
<path d="M143.048 41.992H145.603L145.866 43.6558C146.914 42.253 148.224 41.6658 150.419 41.6658C153.335 41.6658 155.202 42.7425 155.988 44.863C156.38 46.23 156.546 47.6514 156.48 49.0715V58.5651H153.138V49.4305C153.138 45.907 152.221 44.5042 149.862 44.5042C147.34 44.5042 146.39 46.0374 146.39 50.083V58.5651H143.049L143.048 41.992Z" fill="white"/>
<path d="M173.483 56.0204C172.172 57.978 170.239 58.8915 167.455 58.8915C162.869 58.8915 160.641 56.3143 160.641 51.0291V49.8221C160.641 44.2758 162.77 41.6658 167.357 41.6658C170.141 41.6658 172.009 42.6118 173.155 44.6021L170.665 46.0049C170.358 45.4696 169.908 45.0303 169.363 44.7363C168.819 44.4424 168.204 44.3054 167.586 44.3409C165.129 44.3409 163.982 45.9721 163.982 49.5608V51.3552C163.982 54.5525 165.227 56.2162 167.651 56.2162C168.303 56.2576 168.954 56.1288 169.54 55.8427C170.126 55.5566 170.627 55.1231 170.993 54.585L173.483 56.0204Z" fill="white"/>
<path d="M175.875 49.0063C175.875 43.9169 178.037 41.6658 182.918 41.6658C187.766 41.6658 189.929 43.9169 189.929 49.0063V51.551C189.929 56.6404 187.766 58.8915 182.918 58.8915C178.037 58.8915 175.875 56.6404 175.875 51.551V49.0063ZM186.587 49.2347C186.587 45.8417 185.473 44.341 182.885 44.341C180.33 44.341 179.216 45.8417 179.216 49.2347V51.3227C179.216 54.7157 180.33 56.2162 182.885 56.2162C185.473 56.2162 186.587 54.7157 186.587 51.3227V49.2347Z" fill="white"/>
<path d="M197.661 35.2715V52.6929C197.661 55.1069 198.316 55.8575 200.511 55.8575H201.232V58.5651H200.38C195.531 58.5651 194.319 57.3255 194.319 52.3668V35.2715H197.661Z" fill="white"/>
<path d="M204.213 41.992H206.768L207.03 43.6558C208.079 42.253 209.389 41.6658 211.584 41.6658C214.499 41.6658 216.367 42.7425 217.153 44.863C217.545 46.2301 217.711 47.6514 217.644 49.0715V58.5651H214.303V49.4305C214.303 45.907 213.386 44.5042 211.027 44.5042C208.505 44.5042 207.554 46.0374 207.554 50.083V58.5651H204.213V41.992Z" fill="white"/>
<path d="M131.516 79.8722C131.287 83.8853 128.535 85.9732 123.621 85.9732C120.509 85.9732 118.412 85.0271 117.003 83.0695C115.955 81.5689 115.562 79.742 115.562 76.447V71.586C115.562 68.0297 116.053 66.105 117.364 64.5715C118.773 62.8752 120.738 62.0924 123.621 62.0924C128.403 62.0924 131.024 64.2455 131.254 68.2907L128.011 68.552C127.716 66.1702 126.242 64.9306 123.719 64.9306C120.345 64.9306 119.067 66.8228 119.067 71.8144V76.2512C119.067 81.2751 120.345 83.1346 123.719 83.1346C126.373 83.1346 127.912 81.8951 128.24 79.5136L131.516 79.8722Z" fill="white"/>
<path d="M137.872 78.7304C137.872 81.7318 139.313 83.3304 142 83.3304C142.694 83.3884 143.391 83.2655 144.023 82.9738C144.655 82.6821 145.199 82.2316 145.603 81.6666L148.093 83.1346C146.717 85.1574 144.85 85.9732 141.672 85.9732C136.725 85.9732 134.53 83.5588 134.53 78.1108V76.8382C134.53 71.1618 136.594 68.7474 141.476 68.7474C146.357 68.7474 148.421 71.1618 148.421 76.8382V78.1433H137.872V78.7304ZM145.243 75.7618V75.4354C145.243 72.7604 143.965 71.325 141.574 71.325C140.978 71.2537 140.375 71.3541 139.835 71.6143C139.295 71.8745 138.841 72.2836 138.527 72.793C138.088 73.6162 137.863 74.5358 137.872 75.468V75.7619L145.243 75.7618Z" fill="white"/>
<path d="M152.615 69.0739H155.17L155.432 70.7377C156.48 69.3348 157.791 68.7474 159.985 68.7474C162.901 68.7474 164.768 69.8242 165.554 71.9447C165.946 73.3117 166.112 74.733 166.046 76.1531V85.6468H162.704V76.5121C162.704 72.9888 161.788 71.586 159.429 71.586C156.906 71.586 155.956 73.1191 155.956 77.1647V85.6467H152.615V69.0739Z" fill="white"/>
<path d="M169.945 71.7489V69.0739H171.878L172.042 64.0171H175.22V69.0739H178.496V71.7489H175.22V79.7745C175.22 82.1886 175.875 82.9718 178.037 82.9063H178.561V85.6468H177.971C172.992 85.6468 171.878 84.5049 171.878 79.4484V71.7489H169.945Z" fill="white"/>
<path d="M185.245 78.7304C185.245 81.7318 186.686 83.3304 189.372 83.3304C190.066 83.3885 190.763 83.2656 191.395 82.9739C192.027 82.6822 192.571 82.2316 192.975 81.6666L195.466 83.1346C194.09 85.1574 192.222 85.9732 189.045 85.9732C184.098 85.9732 181.903 83.5588 181.903 78.1108V76.8382C181.903 71.1618 183.967 68.7474 188.848 68.7474C193.729 68.7474 195.793 71.1618 195.793 76.8382V78.1433H185.245V78.7304ZM192.615 75.7618V75.4354C192.615 72.7604 191.338 71.325 188.946 71.325C188.35 71.2538 187.747 71.3542 187.207 71.6144C186.667 71.8746 186.213 72.2837 185.899 72.793C185.46 73.6163 185.235 74.5359 185.245 75.468V75.7619L192.615 75.7618Z" fill="white"/>
<path d="M199.921 69.0739H202.509L202.87 70.4767C203.291 69.894 203.856 69.429 204.51 69.1262C205.164 68.8233 205.885 68.6929 206.604 68.7474C207.796 68.7429 208.964 69.0706 209.978 69.6935L208.537 72.4666C207.906 71.9302 207.106 71.6302 206.277 71.6186C204.147 71.6186 203.262 73.3801 203.262 77.5889V85.6468H199.921V69.0739Z" fill="white"/>
</g>
<defs>
<clipPath id="clip0_121_6">
<rect width="218" height="94" fill="white"/>
</clipPath>
</defs>
</svg>
